<svg xmlns="http://www.w3.org/2000/svg" width="73" height="34" viewBox="0 0 73 34">
  <g fill="none" fill-rule="evenodd" transform="translate(-12 -19)">
    <polyline fill="#D4B22F" points="26.365 32.711 31.063 19.672 35.799 32.711 26.365 32.711"/>
    <polyline fill="#D4B22F" points="19.947 32.711 12.341 32.711 22.981 41.17 19.176 52.112 29.489 46.941 31.448 41.331 19.947 32.711"/>
    <polyline fill="#A9A698" points="36.169 32.711 40.222 19.672 44.31 32.711 36.169 32.711"/>
    <polyline fill="#A9A698" points="29.321 32.711 22.793 32.711 33.659 40.744 29.653 52.112 39.102 45.845 40.602 41.517 29.321 32.711"/>
    <polyline fill="#3669A4" points="44.896 32.711 49.596 19.672 54.332 32.711 44.896 32.711"/>
    <polyline fill="#3669A4" points="38.694 32.711 32.167 32.711 42.601 40.71 39.036 52.112 48.26 45.815 49.769 41.058 38.694 32.711"/>
    <polyline fill="#46AD47" points="54.701 32.711 58.754 19.672 62.843 32.711 54.701 32.711"/>
    <polyline fill="#46AD47" points="47.637 32.711 41.757 32.711 51.979 40.47 47.752 52.112 57.433 45.139 58.936 40.597 47.637 32.711"/>
    <polyline fill="#C8392B" points="84.745 32.711 74.123 39.948 78.246 52.112 67.559 44.544 56.917 52.112 60.939 40.005 50.275 32.711 63.432 32.711 67.48 19.672 71.566 32.711 84.745 32.711"/>
  </g>
</svg>
